<?xml version="1.0" encoding="utf-8" ?>
<svg xmlns="http://www.w3.org/2000/svg" xmlns:xlink="http://www.w3.org/1999/xlink" width="840" height="228">
	<path fill="white" d="M605.656 157.959C607.013 157.798 607.493 157.604 608.73 158.272C610.975 161.334 611.239 174.243 610.517 178.231C610.37 179.045 610.016 179.538 609.382 180.049L609.216 179.984C607.89 178.35 608.527 166.688 608.021 163.452C607.671 161.216 607.567 159.356 605.656 157.959Z"/>
	<path fill="white" d="M549.774 92.7377C551.486 95.8198 551.29 110.121 550.149 113.832C550.004 114.302 549.8 114.755 549.577 115.193C548.889 115.593 548.796 115.673 547.969 115.552C547.897 115.44 547.888 115.432 547.832 115.327C546.936 113.657 548.003 96.4608 548.717 94.0383C548.96 93.2161 549.034 93.1314 549.774 92.7377Z"/>
	<path fill="white" d="M640.007 93.5798C640.649 93.5861 641.729 93.4212 642.188 93.8701C644.26 95.8953 643.374 105.256 643.319 108.128L642.674 145.604C642.565 151.195 642.968 157.261 642.217 162.798C642.127 163.462 641.87 163.989 641.407 164.474L641.076 164.689C639.441 162.712 642.373 97.6721 640.007 93.5798Z"/>
	<path fill="white" d="M606.242 92.8306C607.256 92.723 608.014 92.4125 608.85 93.054C607.659 97.3908 599.34 110.972 599.356 112.817C600.617 111.128 601.865 109.416 602.911 107.583C604.78 104.308 608.701 94.4453 611.563 92.7843C612.074 92.7825 612.642 92.728 613.145 92.8048C610.605 97.8742 604.818 111.342 600.722 114.216C605.485 114.239 610.376 114.482 615.124 114.126C615.466 114.994 615.633 115.875 615.655 116.807C615.755 121.129 615.297 125.482 615.258 129.809C615.197 136.588 616.132 176.122 614.682 179.375C614.484 179.819 614.154 180.211 613.811 180.551C613.64 180.449 613.62 180.421 613.512 180.264C612.861 179.317 612.842 178.3 612.789 177.164C612.422 169.38 613.004 161.427 613.19 153.636C613.419 144.049 613.34 134.477 613.313 124.889C613.306 122.358 614.085 117.647 613.07 115.554C605.711 115.455 597.779 116.938 590.534 115.612L590.404 114.792C591.577 114.122 593.817 114.456 595.173 114.497C597.984 112.679 605.506 98.1271 606.573 94.466C606.812 93.6455 606.639 93.5554 606.242 92.8306Z"/>
	<path fill="white" d="M620.154 62.5359C623.802 62.1236 636.542 62.5524 639.778 63.5021C639.917 63.7845 640.036 64.0653 640.132 64.365C641.424 68.3605 640.298 73.5394 640.751 77.7394C640.967 79.737 642.51 83.9623 641.624 85.7198L641.552 85.8633C641.276 85.5477 641.058 85.19 640.83 84.8396L639.985 86.1029C639.05 86.8365 636.445 86.5747 635.229 86.5913Q624.498 86.6512 613.77 86.4171C615.178 84.5543 611.618 69.918 614.399 63.9241C615.672 62.7558 618.41 62.7905 620.154 62.5359Z"/>
	<path fill="white" d="M613.145 92.8048C618.8 93.1462 635.813 91.5894 640.007 93.5798C642.373 97.6721 639.441 162.712 641.076 164.689L641.407 164.474C640.789 166.965 640.752 179.691 639.86 180.221C637.775 181.458 616.822 181.121 613.811 180.551C614.154 180.211 614.484 179.819 614.682 179.375C616.132 176.122 615.197 136.588 615.258 129.809C615.297 125.482 615.755 121.129 615.655 116.807C615.633 115.875 615.466 114.994 615.124 114.126C610.376 114.482 605.485 114.239 600.722 114.216C604.818 111.342 610.605 97.8742 613.145 92.8048Z"/>
	<path fill="white" d="M560.897 69.3146C569.254 68.9447 577.592 69.1319 585.951 69.319C587.805 72.4136 587.379 87.3915 586.384 91.1384C586.241 91.6784 586.035 92.2228 585.706 92.6787C592.564 92.8018 599.383 93.1902 606.242 92.8306C606.639 93.5554 606.812 93.6455 606.573 94.466C605.506 98.1271 597.984 112.679 595.173 114.497C593.817 114.456 591.577 114.122 590.404 114.792L590.534 115.612L588.585 115.67C588.863 119.473 589.39 123.244 589.602 127.054C590.001 134.236 589.714 141.45 590.167 148.632C590.256 150.055 591.095 154.567 590.553 155.676C591.369 156.213 593.692 157.465 593.879 158.486C593.889 158.539 593.893 158.593 593.9 158.647C598.266 159.631 601.465 157.748 605.656 157.959C607.567 159.356 607.671 161.216 608.021 163.452C608.527 166.688 607.89 178.35 609.216 179.984L609.382 180.049C608.056 180.731 605.737 180.754 604.216 180.952C594.726 182.187 583.842 182.596 574.801 178.9C571.907 177.717 568.104 172.923 565.174 173.035C564.263 171.351 562.629 170.199 561.848 168.394C557.315 157.912 558.295 136.967 558.524 125.371C558.582 122.434 559.363 117.964 558.477 115.219C556.799 114.016 551.631 114.964 549.577 115.193C549.8 114.755 550.004 114.302 550.149 113.832C551.29 110.121 551.486 95.8198 549.774 92.7377C553.166 92.5149 556.671 92.451 560.03 91.9442C562.137 87.6316 559.913 83.2329 559.685 78.697C559.539 75.8061 561.762 72.1 560.978 69.5294C560.946 69.4261 560.935 69.4044 560.897 69.3146Z"/>
	<path fill="white" d="M593.9 158.647L593.371 158.933C592.074 158.75 591.116 158.122 590.179 157.242C588.626 155.781 587.887 154.481 587.447 152.407C585.975 145.472 586.987 134.054 586.927 126.588C586.895 122.692 586.354 118.932 586.224 115.096C586.378 114.99 586.553 114.881 586.733 114.827C587.62 114.564 588.762 114.628 589.568 115.004L588.585 115.67C588.863 119.473 589.39 123.244 589.602 127.054C590.001 134.236 589.714 141.45 590.167 148.632C590.256 150.055 591.095 154.567 590.553 155.676C591.369 156.213 593.692 157.465 593.879 158.486C593.889 158.539 593.893 158.593 593.9 158.647Z"/>
	<path fill="white" d="M558.477 115.219L560.019 114.986C562.213 117.727 560.761 150.722 561.452 157.3C561.739 160.027 562.078 163.336 563.204 165.848C563.833 167.25 566.143 171.196 565.993 172.469C565.989 172.506 565.98 172.543 565.974 172.58L565.174 173.035C564.263 171.351 562.629 170.199 561.848 168.394C557.315 157.912 558.295 136.967 558.524 125.371C558.582 122.434 559.363 117.964 558.477 115.219Z"/>
	<path fill="white" d="M493.668 94.66C507.795 91.8435 520.645 92.253 534.736 95.4251C536.952 95.9241 540.368 96.3405 542.244 97.506C542.928 97.9311 543.416 98.5341 543.578 99.3184C544.239 102.523 538.848 111.295 536.891 114.1C535.894 115.53 534.521 117.123 532.712 117.455C529.198 118.102 521.912 111.43 510.8 114.091C509.358 114.436 509 115.987 507.739 116.367C507.465 117.415 507.14 118.093 507.78 119.105C513.406 127.992 549.813 122.368 544.002 156.742C543.695 158.561 542.775 162.472 541.225 163.574C540.743 163.917 540.244 163.934 539.676 164.032C536.225 170.753 530.466 175.484 523.525 178.215C510.884 183.188 496.748 182.266 483.861 178.885C481.437 178.249 478.706 177.72 476.422 176.695C476.009 176.51 475.131 176.01 474.941 175.614C473.409 172.417 480.381 160.025 478.947 156.725C478.921 156.667 478.893 156.61 478.866 156.553C488.082 157.366 503.393 162.563 511.899 157.854C512.922 156.451 514.709 154.321 514.505 152.511C514.489 152.468 514.478 152.423 514.458 152.382C512.033 147.544 500.8 145.185 496.089 143.638C493.486 142.784 490.937 141.707 488.406 140.662C488.15 140.881 487.821 140.899 487.497 140.97C483.208 138.989 479.145 134.312 477.332 130.033C474.654 123.713 475.24 116.244 477.824 109.976C480.766 102.84 486.635 97.5601 493.668 94.66Z"/>
	<path fill="white" d="M493.668 94.66C494.262 94.6804 495.35 94.5629 495.784 94.9317L494.876 95.185L495.806 94.8951C488.223 98.3322 482.865 102.469 479.865 110.48C477.558 116.643 477.271 124.71 480.052 130.753C481.889 134.744 488.229 140.084 488.406 140.662C488.15 140.881 487.821 140.899 487.497 140.97C483.208 138.989 479.145 134.312 477.332 130.033C474.654 123.713 475.24 116.244 477.824 109.976C480.766 102.84 486.635 97.5601 493.668 94.66Z"/>
	<path fill="white" d="M539.676 164.032C541.606 157.847 543.002 152.038 542.005 145.511C539.643 130.041 525.332 128.574 513.373 124.124C511.286 123.347 508.724 122.442 506.941 121.102C506.167 120.52 505.382 119.635 505.27 118.633C505.19 117.916 505.576 116.853 506.06 116.328C506.619 115.721 506.985 115.658 507.759 115.601L507.739 116.367C507.465 117.415 507.14 118.093 507.78 119.105C513.406 127.992 549.813 122.368 544.002 156.742C543.695 158.561 542.775 162.472 541.225 163.574C540.743 163.917 540.244 163.934 539.676 164.032Z"/>
	<path fill="white" d="M423.301 92.4712C430.714 91.9427 440.308 91.8608 447.363 94.4248C453.597 96.6906 459.325 102.752 462.101 108.658C463.899 112.482 464.894 116.681 465.377 120.864C466.376 129.511 465.762 138.499 465.865 147.19C465.962 155.265 466.639 163.477 466.343 171.536C466.292 172.942 466.152 174.256 465.671 175.585C463.889 177.831 460.948 178.487 458.269 179.037C444.184 181.93 425.678 184.552 411.998 179.038C407.44 177.2 403.473 174.299 399.392 171.615C399.202 170.035 397.714 167.777 397.025 166.295C394.105 160.008 393.063 154.227 393.264 147.269C393.404 142.422 395.737 139.026 398.969 135.624C402.197 132.226 406.238 128.893 410.576 127.03C415.591 124.875 422.48 124.135 427.893 124.152C430.677 124.16 433.631 124.494 436.39 124.055C437.464 123.885 438.306 123.556 439.114 122.801C439.529 121.791 439.681 121.412 439.483 120.304C439.191 118.671 437.562 117.286 436.246 116.399C427.901 110.774 412.969 115.733 403.974 117.508C404.014 117.379 404.026 117.348 404.054 117.201C404.185 116.492 403.965 115.503 403.731 114.821C403.257 113.442 402.236 112.094 401.673 110.674C400.055 106.594 399.151 100.46 396.603 97.0056C405.018 96.7747 414.366 93.2754 423.301 92.4712ZM433.285 141.68C428.947 142.062 422.976 142.249 419.945 145.824C418.28 147.789 418.511 150.872 416.927 152.478C419.962 156.604 420.744 158.66 425.826 160.413C430.525 161.154 435.098 160.992 439.779 160.237C440.434 159.159 440.604 157.907 440.648 156.664C440.711 154.873 440.204 153.071 440.084 151.284C439.893 148.452 440.179 145.544 440.389 142.72L440.079 142.076C437.813 141.764 435.567 141.721 433.285 141.68Z"/>
	<path fill="white" d="M769.195 92.4712C778.229 91.964 787.649 92.1425 796.545 93.9057C803.59 95.302 808.887 101.661 812.718 107.446C813.86 109.17 815.079 111.379 815.387 113.453C815.755 115.925 815.247 118.829 815.294 121.357Q815.551 137.578 815.453 153.8C815.457 161.045 816.089 168.968 814.628 176.088C813.135 178.033 808.382 178.497 806.039 179.047C787.853 183.317 767.818 184.281 751.349 174.075C750.998 172.993 749.438 172.766 748.608 172.029C747.223 170.8 745.944 169.3 744.938 167.747C741.234 162.026 741.081 151.101 742.504 144.588C743.48 140.125 745.588 136.421 748.73 133.123C761.894 119.304 782.113 127.534 789.25 122.979C789.723 122.293 790.054 122.028 789.905 121.152C789.615 119.444 787.172 117.47 785.811 116.56C776.946 110.632 762.966 115.999 753.383 117.941C753.472 117.756 753.546 117.563 753.572 117.357C753.734 116.065 753.179 114.983 752.457 113.973L752.392 114.191C750.919 111.478 749.177 108.076 748.792 105C748.478 102.489 749.235 98.8944 748.333 96.6433C750.2 96.0571 751.978 95.1531 753.876 94.6759C758.762 93.4477 764.189 93.2223 769.195 92.4712ZM778.176 142.09C775.717 142.77 770.368 143.971 769.118 146.309C767.691 148.977 769.212 153.55 768.171 156.418C771.742 158.502 774.893 160.17 778.984 161.011C781.841 161.033 784.95 161.286 787.575 159.989C789.92 157.582 790.472 151.291 790.433 147.935C790.411 146.061 790.492 143.455 789.252 141.952C785.582 141.815 781.832 141.634 778.176 142.09Z"/>
	<path fill="white" d="M642.886 85.1646C647.139 81.2794 650.92 66.8512 654.936 64.2636C659.274 61.4682 678.625 62.4998 683.589 63.6165C683.63 63.723 683.671 63.8294 683.706 63.938L683.765 64.1271C685.63 69.9987 684.562 96.7213 684.541 103.995C684.529 107.923 684.152 112.241 685.198 116.048C685.285 116.169 685.362 116.289 685.434 116.421C685.47 116.487 685.504 116.555 685.54 116.622C685.719 116.955 685.863 117.281 685.959 117.648C686.698 120.496 686.333 124.265 684.787 126.77C685.591 126.074 686.471 125.358 687.055 124.462C689.324 120.979 701.802 97.6137 702.135 95.08C703.041 94.4356 704.003 93.7213 705.091 93.4363C709.953 92.1635 725.419 92.5468 730.474 93.4001C731.195 93.5217 732.042 93.6478 732.651 94.0641C732.79 94.8097 732.749 95.5143 732.485 96.2247C729.644 103.865 723.949 112.665 719.938 119.955C717.627 124.156 715.637 128.775 712.953 132.743Q712.298 133.718 711.376 134.445C712.792 135.612 713.639 137.209 714.779 138.616C716.311 140.505 718.028 142.198 719.418 144.209C724.515 151.579 734.998 169.806 735.951 178.382C736.019 178.992 735.981 179.634 735.865 180.237C730.952 180.975 713.418 181.64 708.762 180.704C708.069 180.565 707.364 180.045 706.789 179.654L706.619 179.673C704.732 177.539 703.488 174.434 702.112 171.919C699.297 166.771 688.94 147.098 685.89 144.141C685.899 144.178 685.911 144.214 685.919 144.25C686.25 145.657 685.683 146.815 684.977 147.973C685.52 151.057 684.753 155.359 684.706 158.604C684.619 164.75 685.154 170.903 684.555 177.036C684.42 178.416 684.275 179.593 683.492 180.779C680.613 181.08 677.496 180.827 674.581 180.822Q666.131 180.8 657.681 180.897C657.956 180.565 658.177 180.212 658.285 179.789C659.188 176.257 657.398 167.407 657.423 162.944L658.426 96.682C658.444 93.7298 659.152 87.7181 658.004 85.2194C657.922 85.0403 657.837 84.8693 657.735 84.7003C653 83.6672 647.654 84.6769 642.886 85.1646Z"/>
	<path fill="white" d="M684.977 147.973L684.713 147.886C684.616 145.449 683.999 142.052 684.829 139.789L685.455 139.667C687.759 141.774 705.524 174.025 707.253 178.458C707.128 178.865 707.032 179.3 706.789 179.654L706.619 179.673C704.732 177.539 703.488 174.434 702.112 171.919C699.297 166.771 688.94 147.098 685.89 144.141C685.899 144.178 685.911 144.214 685.919 144.25C686.25 145.657 685.683 146.815 684.977 147.973Z"/>
	<path fill="white" d="M702.135 95.08L703.466 95.3807C703.952 97.0038 691.184 121.001 689.458 124.2C688.551 125.881 687.319 128.978 685.441 129.665C684.116 128.323 684.23 125.226 684.241 123.394C684.249 121.944 684.09 116.79 684.925 115.849L685.198 116.048C685.285 116.169 685.362 116.289 685.434 116.421C685.47 116.487 685.504 116.555 685.54 116.622C685.719 116.955 685.863 117.281 685.959 117.648C686.698 120.496 686.333 124.265 684.787 126.77C685.591 126.074 686.471 125.358 687.055 124.462C689.324 120.979 701.802 97.6137 702.135 95.08Z"/>
	<path fill="white" d="M24.3779 121.486C29.542 121.971 34.6189 124.285 39.6062 125.635C42.8529 126.514 46.27 126.958 49.4299 128.109C54.2517 129.866 58.786 132.139 63.698 133.734C76.1421 137.772 88.879 140.905 101.589 143.984C123.166 149.212 145.403 153.012 167.396 156.018C177.328 157.375 187.42 158.02 197.294 159.664C193.925 166.644 188.859 172.33 184.984 178.965C184.966 184.591 185.416 190.162 182.504 195.215Q182.404 195.337 182.302 195.457C179.34 198.933 174.966 200.96 170.444 201.303C167.569 201.521 164.753 201.107 161.954 200.495C153.492 198.644 145.128 195.978 136.749 193.761L89.52 181.513L51.2449 171.604C43.8413 169.699 36.0839 168.099 28.8618 165.6C25.419 164.409 22.6063 162.411 19.8782 160.06C19.7931 156.797 18.3218 147.241 19.1085 144.917C20.0639 142.094 22.9652 140.878 25.4704 139.646C25.2658 135.525 23.8886 134.413 23.565 131.559C23.1844 128.202 24.2865 124.864 24.3779 121.486ZM93.6402 161.868C91.7654 164.157 89.0848 167.288 89.3536 170.439C89.424 171.264 89.8246 172.287 90.4747 172.834C93.0033 174.96 150.231 189.146 156.687 189.883C156.897 184.588 156.96 181.285 160.386 176.99C147.575 171.384 122.599 168.077 108.18 165.19C103.794 164.312 97.7956 162.28 93.6402 161.868ZM26.4388 148.401C25.4512 149.634 24.4993 150.657 24.6765 152.349C24.8337 153.848 25.8586 154.948 26.9991 155.827C28.8217 157.231 31.0315 158.034 33.2011 158.736C41.7249 161.494 50.6428 162.986 59.3118 165.224C64.6871 166.612 69.8319 168.778 75.2428 170.019C76.9159 170.403 79.3468 171.01 81.0543 170.624C81.2322 170.584 81.2524 170.561 81.3888 170.481C81.5872 166.809 82.5279 163.745 83.9186 160.38C81.4688 159.489 79.0219 158.688 76.4773 158.111C70.6783 156.796 64.7246 156.131 58.8896 154.971C53.9377 153.987 29.4547 148.211 26.4388 148.401ZM32.7765 132.448C32.8082 135.259 32.7645 138.101 32.9284 140.906C40.6052 142.325 48.42 143.709 55.9662 145.707C60.1782 146.822 64.2713 148.68 68.5288 149.556C70.6518 149.993 91.1794 151.893 91.9898 151.692C92.0357 151.681 92.082 151.672 92.128 151.661C92.2075 151.642 92.2856 151.618 92.3636 151.593C90.5138 150.555 88.224 150.282 86.2568 149.46C84.0541 148.54 81.9625 147.406 79.7099 146.596C64.3333 141.069 48.032 138.322 32.7765 132.448ZM173.43 179.529C170.864 181.405 166.305 183.415 165.755 186.932C165.551 188.233 165.993 189.528 166.776 190.563C167.423 191.417 168.328 192.269 169.164 192.945C170.755 192.383 172.44 191.887 173.947 191.13C174.884 189.63 175.889 188.137 176.624 186.525C176.382 183.478 176.254 181.882 173.853 179.861C173.715 179.745 173.575 179.636 173.43 179.529Z"/>
	<path fill="white" d="M127.553 43.2852C135.292 42.9919 143.066 43.158 150.809 43.2109Q150.922 54.8505 150.786 66.4898C150.652 72.7277 150.149 79.1469 150.529 85.367C150.658 87.4728 150.834 91.0802 152.075 92.7628C152.535 93.3872 153.63 93.8436 154.409 93.896C155.523 93.9711 156.804 93.3375 157.608 92.603C158.761 91.5497 158.962 89.6614 159.131 88.1918C159.667 83.5348 159.319 78.529 159.306 73.8353C159.281 63.887 159.102 53.9112 159.349 43.9672C164.274 45.1387 168.596 47.0106 172.875 49.7246C192.914 62.4333 200.872 82.2308 205.881 104.489L206.139 104.907C208.294 106.32 219.056 105.664 221.978 105.355C222.038 111.929 221.876 118.602 221.464 125.164L102.836 125.165L72.5217 125.27C66.8531 125.309 60.5846 125.906 54.9857 125.006C54.8618 123.266 54.8079 121.513 54.7479 119.77C54.6333 116.439 53.9251 109.757 56.4448 107.189C59.1094 104.474 69.3423 105.472 73.2907 105.393C74.2939 101.698 74.9573 97.9091 75.9678 94.211Q77.0338 90.2497 78.4253 86.3906Q79.8167 82.5316 81.5241 78.8015Q83.2315 75.0714 85.243 71.496Q87.2545 67.9206 89.5562 64.5247C95.9912 55.1691 107.208 45.3008 118.624 43.177C121.725 46.2881 116.286 88.3705 121.253 93.6894C121.605 94.0664 122.071 94.388 122.59 94.4124C123.771 94.468 124.773 93.8787 125.608 93.0885C126.562 92.185 127.186 91.1391 127.413 89.8392C128.352 84.455 127.665 78.0835 127.595 72.5878Q127.339 57.9367 127.553 43.2852ZM135.493 48.5338C135.64 56.4955 135.486 64.4609 135.575 72.4233C135.644 78.6511 136.48 85.3576 135.33 91.4972C134.81 94.2708 133.717 96.8945 131.738 98.9484Q131.353 99.3546 130.928 99.72Q130.504 100.085 130.045 100.406Q129.587 100.727 129.098 101Q128.609 101.273 128.095 101.496Q127.581 101.718 127.048 101.888Q126.514 102.058 125.966 102.173Q125.418 102.289 124.862 102.348Q124.305 102.408 123.745 102.411C120.464 102.44 117.192 101.024 114.888 98.7069C110.988 94.7863 111.076 88.87 111.125 83.7061C111.213 74.3633 111.612 64.8684 110.781 55.554C97.2105 66.9595 90.3095 75.4611 84.4934 92.462C82.57 98.0842 80.8603 103.788 80.3444 109.733Q80.218 111.218 80.1306 112.706C75.7562 112.663 66.1691 111.43 62.9682 114.481C62.8444 114.599 62.7355 114.723 62.6239 114.852C63.316 116.357 64.2025 116.618 65.7356 117.198C68.2404 118.148 128.99 117.299 137.394 117.309C145.475 117.372 208.839 117.582 211.171 116.42C211.602 115.559 211.451 115.403 211.185 114.476C208.111 112.892 202.239 113.703 198.75 113.511C194.303 91.3875 190.135 71.644 169.911 58.2272Q168.727 57.444 167.508 56.7163C167.869 62.7325 168.122 87.2261 167.13 92.286C166.679 94.5836 165.521 96.8903 163.973 98.6428C161.852 101.045 159.004 102.305 155.826 102.496C152.507 102.696 148.952 101.774 146.451 99.5079C143.211 96.5732 142.51 92.0789 142.333 87.9186C141.773 74.8039 142.489 61.5636 142.274 48.4301C140.003 48.5949 137.766 48.5796 135.493 48.5338Z"/>
	<path fill="white" d="M275.377 60.4888C281.18 59.8381 287.551 59.6623 293.306 60.7849C295.002 62.087 296.325 65.7419 297.198 67.6845C302.921 80.4127 307.554 93.6917 312.746 106.645C314.392 110.752 318.185 117.843 318.996 121.754C319.021 121.73 319.047 121.707 319.072 121.684C320.064 120.747 320.631 119.495 321.187 118.271C322.976 114.332 324.116 110.104 325.81 106.121C328.536 99.7114 331.94 93.2855 334.203 86.7107C335.661 82.4727 335.79 78.0516 337.691 73.885C339.155 70.6755 344.015 63.542 344.128 60.7859C353.128 60.478 362.8 59.876 371.735 60.7308C371.745 60.7629 371.756 60.7948 371.765 60.827C371.78 60.8807 371.794 60.9351 371.809 60.9887C371.824 61.0385 371.84 61.0876 371.856 61.1372C373.104 65.2149 373.181 84.3006 373.472 90.1601L376.03 144.118C376.489 153.767 377.221 163.452 377.387 173.109C377.428 175.502 377.827 178.888 376.673 181.047C372.195 181.738 366.897 181.036 362.334 180.917C357.928 180.802 353.594 181.029 349.203 181.331C349.378 181.025 349.46 180.739 349.53 180.396C350.096 177.614 348.965 174.194 348.907 171.279C348.831 167.506 349.621 163.733 349.319 159.958C349.215 158.655 349.037 157.571 348.31 156.462C348.554 156.091 348.79 155.672 348.925 155.246C349.39 153.772 348.241 151.684 348.14 150.101C348.01 148.067 348.729 145.985 348.636 143.935C348.509 141.128 347.765 138.266 347.517 135.445C347.268 132.607 347.491 122.07 346.6 120.26C342.849 120.96 333.632 152.299 328.754 156.297C328.729 156.318 328.703 156.338 328.678 156.358C321.883 156.874 314.967 156.636 308.153 156.622C308.742 153.73 295.767 125.822 293.349 121.802C292.59 120.541 291.547 118.77 290.028 118.394C285.878 121.069 290.353 173.621 286.368 180.836C282.29 182.062 265.71 181.161 260.096 181.253C260.216 181.036 260.314 180.818 260.394 180.583C261.216 178.164 261.546 151.159 261.717 147.026L263.871 94.9457C264.247 86.6613 264.482 78.4272 264.608 70.1332C264.646 67.5669 265.05 64.8667 264.926 62.3221C264.902 61.8405 264.712 61.3802 264.504 60.9511C268.11 60.5831 271.789 60.9962 275.377 60.4888Z"/>
</svg>
